<svg xmlns="http://www.w3.org/2000/svg" xmlns:xlink="http://www.w3.org/1999/xlink" width="128" zoomAndPan="magnify" viewBox="0 0 96 43.499998" height="58" preserveAspectRatio="xMidYMid meet" version="1.0"><defs><g/><clipPath id="50dabe1520"><path d="M 3.796875 1.691406 L 46.804688 1.691406 L 46.804688 40.25 L 3.796875 40.25 Z M 3.796875 1.691406 " clip-rule="nonzero"/></clipPath></defs><g clip-path="url(#50dabe1520)"><path fill="#5864ff" d="M 5.636719 19.480469 C 6.648438 19.480469 7.472656 20.296875 7.472656 21.308594 C 7.472656 22.320312 6.648438 23.140625 5.636719 23.140625 C 4.621094 23.140625 3.796875 22.320312 3.796875 21.308594 C 3.796875 20.300781 4.621094 19.480469 5.636719 19.480469 M 6.804688 9.1875 C 7.671875 9.1875 8.375 9.886719 8.375 10.75 C 8.375 11.613281 7.671875 12.316406 6.804688 12.316406 C 5.9375 12.316406 5.234375 11.613281 5.234375 10.75 C 5.234375 9.886719 5.9375 9.1875 6.804688 9.1875 Z M 13.546875 13.929688 C 14.910156 13.929688 16.019531 15.03125 16.019531 16.394531 C 16.019531 17.753906 14.910156 18.855469 13.546875 18.855469 C 12.179688 18.855469 11.070312 17.753906 11.070312 16.394531 C 11.070312 15.03125 12.179688 13.929688 13.546875 13.929688 Z M 16.402344 4.445312 C 17.667969 4.445312 18.691406 5.46875 18.691406 6.726562 C 18.691406 7.984375 17.667969 9.007812 16.402344 9.007812 C 15.140625 9.007812 14.113281 7.984375 14.113281 6.726562 C 14.113281 5.46875 15.140625 4.445312 16.402344 4.445312 Z M 29.949219 6.050781 L 34.464844 12.648438 L 34.644531 12.644531 C 36.917969 12.644531 38.761719 14.480469 38.761719 16.746094 C 38.761719 19.007812 36.917969 20.84375 34.644531 20.84375 C 33.574219 20.84375 32.566406 20.433594 31.8125 19.71875 L 29.34375 20.609375 C 29.082031 21.480469 28.480469 22.207031 27.695312 22.628906 C 28.34375 22.84375 28.910156 23.257812 29.3125 23.808594 L 32.410156 23.796875 C 33.003906 23.023438 33.9375 22.546875 34.949219 22.546875 C 36.710938 22.546875 38.144531 23.972656 38.144531 25.730469 C 38.144531 27.492188 36.714844 28.917969 34.949219 28.917969 C 33.941406 28.917969 33.011719 28.445312 32.417969 27.679688 L 29.285156 27.691406 C 28.789062 28.351562 28.058594 28.800781 27.242188 28.949219 L 26.070312 31.445312 C 26.203125 31.789062 26.273438 32.152344 26.273438 32.527344 C 26.273438 33.488281 25.820312 34.34375 25.117188 34.898438 C 27.144531 35.46875 28.960938 36.652344 30.3125 38.304688 L 36.980469 38.304688 L 39.398438 33.550781 C 42.726562 32.71875 45.074219 32.839844 43.867188 28.808594 C 44.941406 27.785156 45.601562 27.414062 44.394531 26.519531 C 44.894531 26.261719 45.054688 26.011719 45.128906 25.664062 L 44.253906 24.015625 C 46.003906 23.019531 46.804688 22.023438 46.1875 21.3125 L 42.199219 16.75 C 41.519531 8.433594 36.054688 4.664062 30.195312 4.34375 C 30.203125 4.4375 30.207031 4.53125 30.207031 4.625 C 30.207031 5.113281 30.117188 5.597656 29.949219 6.050781 Z M 29.015625 4.328125 C 28.867188 2.851562 27.613281 1.695312 26.089844 1.695312 C 24.464844 1.695312 23.148438 3.007812 23.148438 4.625 C 23.148438 4.941406 23.199219 5.246094 23.292969 5.53125 C 23.675781 6.707031 24.785156 7.554688 26.089844 7.554688 C 26.582031 7.554688 27.046875 7.433594 27.453125 7.222656 L 32.558594 14.683594 C 32.03125 15.210938 31.707031 15.941406 31.707031 16.742188 L 31.707031 16.867188 L 27.828125 18.269531 C 27.417969 17.757812 26.789062 17.425781 26.078125 17.425781 C 24.851562 17.425781 23.851562 18.421875 23.851562 19.644531 C 23.851562 20.871094 24.851562 21.863281 26.078125 21.863281 C 27.277344 21.863281 28.257812 20.921875 28.304688 19.738281 L 32.179688 18.339844 C 32.703125 19.140625 33.613281 19.671875 34.644531 19.671875 C 36.269531 19.671875 37.585938 18.359375 37.585938 16.742188 C 37.585938 15.125 36.269531 13.8125 34.644531 13.8125 C 34.390625 13.8125 34.140625 13.847656 33.90625 13.90625 L 28.597656 6.15625 C 28.871094 5.710938 29.03125 5.183594 29.03125 4.625 C 29.03125 4.523438 29.023438 4.425781 29.015625 4.328125 Z M 22.191406 30.992188 C 21.699219 31.324219 21.375 31.886719 21.375 32.523438 C 21.375 33.484375 22.109375 34.277344 23.050781 34.371094 C 23.109375 34.375 23.171875 34.378906 23.234375 34.378906 C 24.265625 34.378906 25.097656 33.550781 25.097656 32.523438 C 25.097656 32.132812 24.976562 31.765625 24.765625 31.46875 L 26.472656 27.820312 L 26.660156 27.828125 C 27.542969 27.828125 28.296875 27.289062 28.609375 26.523438 L 33.082031 26.503906 C 33.386719 27.234375 34.109375 27.746094 34.949219 27.746094 C 36.066406 27.746094 36.972656 26.84375 36.972656 25.730469 C 36.972656 24.617188 36.066406 23.714844 34.949219 23.714844 C 34.105469 23.714844 33.382812 24.230469 33.078125 24.964844 L 28.628906 24.980469 C 28.328125 24.195312 27.558594 23.632812 26.660156 23.632812 C 25.964844 23.632812 25.351562 23.96875 24.964844 24.488281 L 21.28125 22.476562 C 21.320312 22.304688 21.339844 22.121094 21.339844 21.9375 C 21.339844 21.148438 20.980469 20.441406 20.417969 19.972656 L 21.960938 16.179688 C 22.121094 16.199219 22.285156 16.210938 22.449219 16.210938 C 24.554688 16.210938 26.257812 14.511719 26.257812 12.414062 C 26.257812 10.320312 24.550781 8.621094 22.449219 8.621094 C 20.34375 8.621094 18.640625 10.320312 18.640625 12.414062 C 18.640625 13.800781 19.382812 15.007812 20.492188 15.671875 L 18.984375 19.386719 L 18.773438 19.378906 C 17.355469 19.378906 16.207031 20.523438 16.207031 21.9375 C 16.207031 23.347656 17.355469 24.492188 18.773438 24.492188 C 19.445312 24.492188 20.054688 24.238281 20.511719 23.816406 L 24.578125 26.035156 C 24.636719 26.453125 24.820312 26.828125 25.089844 27.128906 L 23.425781 30.679688 L 23.238281 30.671875 C 22.847656 30.671875 22.488281 30.789062 22.191406 30.992188 Z M 26.078125 16.257812 C 26.820312 16.257812 27.527344 16.496094 28.105469 16.925781 L 30.59375 16.023438 C 30.679688 15.535156 30.855469 15.070312 31.109375 14.644531 L 26.992188 8.625 C 26.699219 8.691406 26.394531 8.726562 26.089844 8.726562 L 25.769531 8.714844 C 26.789062 9.621094 27.433594 10.945312 27.433594 12.414062 C 27.433594 13.988281 26.699219 15.386719 25.554688 16.296875 C 25.726562 16.269531 25.902344 16.257812 26.078125 16.257812 Z M 22.152344 35.988281 C 23.332031 35.988281 24.289062 36.941406 24.289062 38.121094 C 24.289062 39.296875 23.332031 40.25 22.152344 40.25 C 20.972656 40.25 20.011719 39.296875 20.011719 38.121094 C 20.011719 36.941406 20.96875 35.988281 22.152344 35.988281 Z M 15.5 32.761719 C 16.679688 32.761719 17.636719 33.714844 17.636719 34.890625 C 17.636719 36.066406 16.679688 37.023438 15.5 37.023438 C 14.320312 37.023438 13.363281 36.066406 13.363281 34.890625 C 13.363281 33.714844 14.320312 32.761719 15.5 32.761719 Z M 12.195312 25.371094 C 13.191406 25.371094 14 26.175781 14 27.167969 C 14 28.160156 13.191406 28.964844 12.195312 28.964844 C 11.199219 28.964844 10.394531 28.160156 10.394531 27.167969 C 10.394531 26.175781 11.199219 25.371094 12.195312 25.371094 Z M 12.195312 25.371094 " fill-opacity="1" fill-rule="evenodd"/></g><g fill="#5864ff" fill-opacity="1"><g transform="translate(47.29718, 22.233139)"><g><path d="M 0.273438 0 L 3.039062 0 L 3.515625 -1.316406 L 7.5625 -1.316406 L 8.058594 0 L 10.808594 0 L 5.667969 -12.652344 L 5.414062 -12.652344 Z M 4.40625 -3.601562 L 5.550781 -6.777344 L 6.660156 -3.601562 Z M 4.40625 -3.601562 "/></g></g></g><g fill="#5864ff" fill-opacity="1"><g transform="translate(57.50437, 22.233139)"><g><path d="M 5.003906 -12.207031 L 1.367188 -12.207031 L 1.367188 0 L 5.003906 0 C 13.128906 0 13.128906 -12.207031 5.003906 -12.207031 Z M 5.003906 -9.765625 C 9.75 -9.765625 9.75 -2.441406 5.003906 -2.441406 L 3.808594 -2.441406 L 3.808594 -9.765625 Z M 5.003906 -9.765625 "/></g></g></g><g fill="#5864ff" fill-opacity="1"><g transform="translate(68.582093, 22.233139)"><g><path d="M 0.648438 -6.964844 L 0.648438 -4.695312 L 6.863281 -4.695312 L 6.863281 -6.964844 Z M 0.648438 -6.964844 "/></g></g></g><g fill="#5864ff" fill-opacity="1"><g transform="translate(75.392494, 22.233139)"><g><path d="M 0.273438 0 L 3.039062 0 L 3.515625 -1.316406 L 7.5625 -1.316406 L 8.058594 0 L 10.808594 0 L 5.667969 -12.652344 L 5.414062 -12.652344 Z M 4.40625 -3.601562 L 5.550781 -6.777344 L 6.660156 -3.601562 Z M 4.40625 -3.601562 "/></g></g></g><g fill="#5864ff" fill-opacity="1"><g transform="translate(85.599684, 22.233139)"><g><path d="M 3.808594 0 L 3.808594 -12.207031 L 1.367188 -12.207031 L 1.367188 0 Z M 3.808594 0 "/></g></g></g><g fill="#5864ff" fill-opacity="1"><g transform="translate(47.67558, 30.913131)"><g><path d="M 1.859375 -3.359375 L 1.578125 -2.4375 L 3.375 -2.4375 L 3.09375 -3.359375 C 2.976562 -3.691406 2.867188 -4.023438 2.765625 -4.359375 C 2.671875 -4.691406 2.578125 -5.03125 2.484375 -5.375 L 2.453125 -5.375 C 2.359375 -5.03125 2.257812 -4.691406 2.15625 -4.359375 C 2.0625 -4.023438 1.960938 -3.691406 1.859375 -3.359375 Z M 0.03125 0 L 2.0625 -6 L 2.921875 -6 L 4.9375 0 L 4.125 0 L 3.5625 -1.828125 L 1.375 -1.828125 L 0.796875 0 Z M 0.03125 0 "/></g></g></g><g fill="#5864ff" fill-opacity="1"><g transform="translate(52.645613, 30.913131)"><g><path d="M 0.828125 0 L 0.828125 -6 L 1.609375 -6 L 3.78125 -2.234375 L 4.421875 -0.984375 L 4.453125 -0.984375 C 4.441406 -1.285156 4.425781 -1.597656 4.40625 -1.921875 C 4.382812 -2.253906 4.375 -2.578125 4.375 -2.890625 L 4.375 -6 L 5.09375 -6 L 5.09375 0 L 4.3125 0 L 2.125 -3.78125 L 1.484375 -5.015625 L 1.4375 -5.015625 C 1.46875 -4.703125 1.492188 -4.390625 1.515625 -4.078125 C 1.535156 -3.765625 1.546875 -3.453125 1.546875 -3.140625 L 1.546875 0 Z M 0.828125 0 "/></g></g></g><g fill="#5864ff" fill-opacity="1"><g transform="translate(58.556663, 30.913131)"><g><path d="M 1.859375 -3.359375 L 1.578125 -2.4375 L 3.375 -2.4375 L 3.09375 -3.359375 C 2.976562 -3.691406 2.867188 -4.023438 2.765625 -4.359375 C 2.671875 -4.691406 2.578125 -5.03125 2.484375 -5.375 L 2.453125 -5.375 C 2.359375 -5.03125 2.257812 -4.691406 2.15625 -4.359375 C 2.0625 -4.023438 1.960938 -3.691406 1.859375 -3.359375 Z M 0.03125 0 L 2.0625 -6 L 2.921875 -6 L 4.9375 0 L 4.125 0 L 3.5625 -1.828125 L 1.375 -1.828125 L 0.796875 0 Z M 0.03125 0 "/></g></g></g><g fill="#5864ff" fill-opacity="1"><g transform="translate(63.526696, 30.913131)"><g><path d="M 0.828125 0 L 0.828125 -6 L 1.578125 -6 L 1.578125 -0.65625 L 4.203125 -0.65625 L 4.203125 0 Z M 0.828125 0 "/></g></g></g><g fill="#5864ff" fill-opacity="1"><g transform="translate(67.966841, 30.913131)"><g><path d="M 1.796875 0 L 1.796875 -2.328125 L -0.015625 -6 L 0.796875 -6 L 1.578125 -4.3125 C 1.679688 -4.082031 1.773438 -3.863281 1.859375 -3.65625 C 1.953125 -3.445312 2.050781 -3.226562 2.15625 -3 L 2.1875 -3 C 2.289062 -3.226562 2.394531 -3.445312 2.5 -3.65625 C 2.601562 -3.863281 2.703125 -4.082031 2.796875 -4.3125 L 3.5625 -6 L 4.359375 -6 L 2.5625 -2.328125 L 2.5625 0 Z M 1.796875 0 "/></g></g></g><g fill="#5864ff" fill-opacity="1"><g transform="translate(72.315617, 30.913131)"><g><path d="M 2.0625 0 L 2.0625 -5.359375 L 0.25 -5.359375 L 0.25 -6 L 4.640625 -6 L 4.640625 -5.359375 L 2.828125 -5.359375 L 2.828125 0 Z M 2.0625 0 "/></g></g></g><g fill="#5864ff" fill-opacity="1"><g transform="translate(77.212567, 30.913131)"><g><path d="M 0.828125 0 L 0.828125 -6 L 1.578125 -6 L 1.578125 0 Z M 0.828125 0 "/></g></g></g><g fill="#5864ff" fill-opacity="1"><g transform="translate(79.615358, 30.913131)"><g><path d="M 3.09375 0.109375 C 2.707031 0.109375 2.359375 0.0390625 2.046875 -0.09375 C 1.734375 -0.238281 1.457031 -0.441406 1.21875 -0.703125 C 0.988281 -0.972656 0.804688 -1.300781 0.671875 -1.6875 C 0.535156 -2.070312 0.46875 -2.507812 0.46875 -3 C 0.46875 -3.476562 0.535156 -3.910156 0.671875 -4.296875 C 0.804688 -4.679688 0.992188 -5.003906 1.234375 -5.265625 C 1.472656 -5.535156 1.753906 -5.742188 2.078125 -5.890625 C 2.398438 -6.035156 2.753906 -6.109375 3.140625 -6.109375 C 3.503906 -6.109375 3.820312 -6.03125 4.09375 -5.875 C 4.375 -5.726562 4.601562 -5.554688 4.78125 -5.359375 L 4.375 -4.875 C 4.207031 -5.039062 4.023438 -5.175781 3.828125 -5.28125 C 3.628906 -5.382812 3.398438 -5.4375 3.140625 -5.4375 C 2.859375 -5.4375 2.597656 -5.378906 2.359375 -5.265625 C 2.128906 -5.148438 1.929688 -4.988281 1.765625 -4.78125 C 1.609375 -4.570312 1.484375 -4.316406 1.390625 -4.015625 C 1.304688 -3.722656 1.265625 -3.390625 1.265625 -3.015625 C 1.265625 -2.640625 1.304688 -2.300781 1.390625 -2 C 1.484375 -1.695312 1.609375 -1.4375 1.765625 -1.21875 C 1.921875 -1.007812 2.113281 -0.847656 2.34375 -0.734375 C 2.570312 -0.617188 2.828125 -0.5625 3.109375 -0.5625 C 3.410156 -0.5625 3.671875 -0.617188 3.890625 -0.734375 C 4.109375 -0.859375 4.3125 -1.023438 4.5 -1.234375 L 4.921875 -0.765625 C 4.691406 -0.484375 4.425781 -0.265625 4.125 -0.109375 C 3.820312 0.0351562 3.476562 0.109375 3.09375 0.109375 Z M 3.09375 0.109375 "/></g></g></g><g fill="#5864ff" fill-opacity="1"><g transform="translate(84.832068, 30.913131)"><g><path d="M 1.859375 -3.359375 L 1.578125 -2.4375 L 3.375 -2.4375 L 3.09375 -3.359375 C 2.976562 -3.691406 2.867188 -4.023438 2.765625 -4.359375 C 2.671875 -4.691406 2.578125 -5.03125 2.484375 -5.375 L 2.453125 -5.375 C 2.359375 -5.03125 2.257812 -4.691406 2.15625 -4.359375 C 2.0625 -4.023438 1.960938 -3.691406 1.859375 -3.359375 Z M 0.03125 0 L 2.0625 -6 L 2.921875 -6 L 4.9375 0 L 4.125 0 L 3.5625 -1.828125 L 1.375 -1.828125 L 0.796875 0 Z M 0.03125 0 "/></g></g></g></svg>